<?xml version="1.0" standalone="no"?>
<!DOCTYPE svg PUBLIC "-//W3C//DTD SVG 20010904//EN"
 "http://www.w3.org/TR/2001/REC-SVG-20010904/DTD/svg10.dtd">
<svg version="1.0" xmlns="http://www.w3.org/2000/svg"
 width="1024.000000pt" height="1024.000000pt" viewBox="0 0 1024.000000 1024.000000"
 preserveAspectRatio="xMidYMid meet">
<metadata>
Created by potrace 1.16, written by Peter Selinger 2001-2019
</metadata>
<g transform="translate(0.000000,1024.000000) scale(0.100000,-0.100000)"
fill="#FF0000" stroke="none">
<path d="M3135 8520 c-204 -41 -393 -183 -487 -366 -89 -173 -82 -37 -85
-1539 -3 -885 0 -1353 7 -1397 19 -124 68 -238 146 -339 82 -107 203 -191 341
-237 72 -23 97 -26 303 -31 l225 -6 5 -400 c3 -278 9 -406 17 -420 30 -53 113
-105 165 -105 81 0 84 2 558 476 l455 454 1135 0 c1278 0 1207 -4 1369 77 77
38 110 62 175 127 119 119 180 236 205 396 15 90 15 2630 0 2719 -37 229 -180
426 -382 526 -163 80 0 75 -2172 74 -1067 -1 -1958 -5 -1980 -9z m1348 -1295
c65 -45 92 -130 60 -197 -10 -20 -72 -92 -138 -160 -66 -68 -133 -138 -149
-155 l-28 -33 898 0 899 0 -157 158 c-86 86 -161 168 -168 181 -7 13 -12 46
-12 73 0 60 34 117 85 141 43 21 119 22 155 3 15 -8 163 -151 329 -318 343
-344 349 -353 322 -453 -9 -33 -62 -91 -317 -347 -168 -169 -320 -314 -338
-323 -126 -59 -266 58 -232 194 10 41 30 64 165 197 84 83 153 153 153 155 0
2 -400 4 -889 4 l-889 0 153 -156 c125 -127 156 -164 165 -198 15 -56 4 -106
-33 -148 -58 -66 -125 -80 -202 -43 -27 13 -146 126 -341 323 -269 270 -302
307 -312 347 -8 33 -8 56 0 89 10 39 45 78 317 352 168 169 320 315 336 323
48 25 124 21 168 -9z"/>
<path d="M1685 3046 c-98 -45 -152 -138 -143 -249 3 -35 12 -76 21 -92 22 -42
74 -93 121 -118 l41 -22 3365 -3 c2437 -2 3379 0 3417 8 181 39 256 269 134
411 -19 23 -58 52 -85 65 l-51 24 -3385 0 -3385 0 -50 -24z"/>
<path d="M1735 2041 c-156 -38 -239 -211 -171 -357 27 -59 90 -116 145 -132
57 -18 6767 -17 6825 0 59 18 141 100 156 158 19 70 8 162 -27 218 -32 53
-110 106 -170 116 -54 8 -6722 6 -6758 -3z"/>
</g>
</svg>
